<svg xmlns="http://www.w3.org/2000/svg" xmlns:xlink="http://www.w3.org/1999/xlink" id="processonSvg1000" viewBox="68.0 15.0 1186.5 1014.0" width="1186.5" height="1014.0"><defs id="ProcessOnDefs1001"><marker id="ProcessOnMarker1017" markerUnits="userSpaceOnUse" orient="auto" markerWidth="16.23606797749979" markerHeight="10.550836550532098" viewBox="-1.0 -1.3763819204711736 16.23606797749979 10.550836550532098" refX="-1.0" refY="3.8990363547948754"><path id="ProcessOnPath1018" d="M12.0 3.8990363547948754L0.0 7.798072709589751V0.0Z" stroke="#323232" stroke-width="2.0" fill="#323232" transform="matrix(1.0,0.0,0.0,1.0,0.0,0.0)"/></marker><marker id="ProcessOnMarker1029" markerUnits="userSpaceOnUse" orient="auto" markerWidth="16.23606797749979" markerHeight="10.550836550532098" viewBox="-1.0 -1.3763819204711736 16.23606797749979 10.550836550532098" refX="-1.0" refY="3.8990363547948754"><path id="ProcessOnPath1030" d="M12.0 3.8990363547948754L0.0 7.798072709589751V0.0Z" stroke="#323232" stroke-width="2.0" fill="#323232" transform="matrix(1.0,0.0,0.0,1.0,0.0,0.0)"/></marker><marker id="ProcessOnMarker1086" markerUnits="userSpaceOnUse" orient="auto" markerWidth="16.23606797749979" markerHeight="10.550836550532098" viewBox="-1.0 -1.3763819204711736 16.23606797749979 10.550836550532098" refX="-1.0" refY="3.8990363547948754"><path id="ProcessOnPath1087" d="M12.0 3.8990363547948754L0.0 7.798072709589751V0.0Z" stroke="#323232" stroke-width="2.0" fill="#323232" transform="matrix(1.0,0.0,0.0,1.0,0.0,0.0)"/></marker><marker id="ProcessOnMarker1090" markerUnits="userSpaceOnUse" orient="auto" markerWidth="16.23606797749979" markerHeight="10.550836550532098" viewBox="-1.0 -1.3763819204711736 16.23606797749979 10.550836550532098" refX="-1.0" refY="3.8990363547948754"><path id="ProcessOnPath1091" d="M12.0 3.8990363547948754L0.0 7.798072709589751V0.0Z" stroke="#323232" stroke-width="2.0" fill="#323232" transform="matrix(1.0,0.0,0.0,1.0,0.0,0.0)"/></marker><marker id="ProcessOnMarker1094" markerUnits="userSpaceOnUse" orient="auto" markerWidth="16.23606797749979" markerHeight="10.550836550532098" viewBox="-1.0 -1.3763819204711736 16.23606797749979 10.550836550532098" refX="-1.0" refY="3.8990363547948754"><path id="ProcessOnPath1095" d="M12.0 3.8990363547948754L0.0 7.798072709589751V0.0Z" stroke="#323232" stroke-width="2.0" fill="#323232" transform="matrix(1.0,0.0,0.0,1.0,0.0,0.0)"/></marker><marker id="ProcessOnMarker1098" markerUnits="userSpaceOnUse" orient="auto" markerWidth="16.23606797749979" markerHeight="10.550836550532098" viewBox="-1.0 -1.3763819204711736 16.23606797749979 10.550836550532098" refX="-1.0" refY="3.8990363547948754"><path id="ProcessOnPath1099" d="M12.0 3.8990363547948754L0.0 7.798072709589751V0.0Z" stroke="#323232" stroke-width="2.0" fill="#323232" transform="matrix(1.0,0.0,0.0,1.0,0.0,0.0)"/></marker><marker id="ProcessOnMarker1102" markerUnits="userSpaceOnUse" orient="auto" markerWidth="16.23606797749979" markerHeight="10.550836550532098" viewBox="-1.0 -1.3763819204711736 16.23606797749979 10.550836550532098" refX="-1.0" refY="3.8990363547948754"><path id="ProcessOnPath1103" d="M12.0 3.8990363547948754L0.0 7.798072709589751V0.0Z" stroke="#323232" stroke-width="2.0" fill="#323232" transform="matrix(1.0,0.0,0.0,1.0,0.0,0.0)"/></marker><marker id="ProcessOnMarker1129" markerUnits="userSpaceOnUse" orient="auto" markerWidth="16.23606797749979" markerHeight="10.550836550532098" viewBox="-1.0 -1.3763819204711736 16.23606797749979 10.550836550532098" refX="15.23606797749979" refY="3.8990363547948754"><path id="ProcessOnPath1130" d="M12.0 3.8990363547948754L0.0 7.798072709589751V0.0Z" stroke="#323232" stroke-width="2.0" fill="#323232" transform="matrix(-1.0,1.2246467991473532E-16,-1.2246467991473532E-16,-1.0,14.23606797749979,7.798072709589751)"/></marker><marker id="ProcessOnMarker1136" markerUnits="userSpaceOnUse" orient="auto" markerWidth="16.23606797749979" markerHeight="10.550836550532098" viewBox="-1.0 -1.3763819204711736 16.23606797749979 10.550836550532098" refX="-1.0" refY="3.8990363547948754"><path id="ProcessOnPath1137" d="M12.0 3.8990363547948754L0.0 7.798072709589751V0.0Z" stroke="#323232" stroke-width="2.0" fill="#323232" transform="matrix(1.0,0.0,0.0,1.0,0.0,0.0)"/></marker><pattern id="ProcessOnPattern1149" patternUnits="userSpaceOnUse" width="600.0" height="209.0"><image id="ProcessOnImage1150"/></pattern><marker id="ProcessOnMarker1153" markerUnits="userSpaceOnUse" orient="auto" markerWidth="16.23606797749979" markerHeight="10.550836550532098" viewBox="-1.0 -1.3763819204711736 16.23606797749979 10.550836550532098" refX="-1.0" refY="3.8990363547948754"><path id="ProcessOnPath1154" d="M12.0 3.8990363547948754L0.0 7.798072709589751V0.0Z" stroke="#323232" stroke-width="2.0" fill="#323232" transform="matrix(1.0,0.0,0.0,1.0,0.0,0.0)"/></marker><marker id="ProcessOnMarker1170" markerUnits="userSpaceOnUse" orient="auto" markerWidth="16.23606797749979" markerHeight="10.550836550532098" viewBox="-1.0 -1.3763819204711736 16.23606797749979 10.550836550532098" refX="-1.0" refY="3.8990363547948754"><path id="ProcessOnPath1171" d="M12.0 3.8990363547948754L0.0 7.798072709589751V0.0Z" stroke="#323232" stroke-width="2.0" fill="#323232" transform="matrix(1.0,0.0,0.0,1.0,0.0,0.0)"/></marker><marker id="ProcessOnMarker1182" markerUnits="userSpaceOnUse" orient="auto" markerWidth="16.23606797749979" markerHeight="10.550836550532098" viewBox="-1.0 -1.3763819204711736 16.23606797749979 10.550836550532098" refX="-1.0" refY="3.8990363547948754"><path id="ProcessOnPath1183" d="M12.0 3.8990363547948754L0.0 7.798072709589751V0.0Z" stroke="#323232" stroke-width="2.0" fill="#323232" transform="matrix(1.0,0.0,0.0,1.0,0.0,0.0)"/></marker><marker id="ProcessOnMarker1186" markerUnits="userSpaceOnUse" orient="auto" markerWidth="16.23606797749979" markerHeight="10.550836550532098" viewBox="-1.0 -1.3763819204711736 16.23606797749979 10.550836550532098" refX="-1.0" refY="3.8990363547948754"><path id="ProcessOnPath1187" d="M12.0 3.8990363547948754L0.0 7.798072709589751V0.0Z" stroke="#323232" stroke-width="2.0" fill="#323232" transform="matrix(1.0,0.0,0.0,1.0,0.0,0.0)"/></marker></defs><g id="ProcessOnG1002"><path id="ProcessOnPath1003" d="M68.0 15.0H1254.5V1029.0H68.0V15.0Z" fill="none"/><g id="ProcessOnG1004"><g id="ProcessOnG1005" transform="matrix(1.0,0.0,0.0,1.0,1005.5,328.0)" opacity="1.0"><path id="ProcessOnPath1006" d="M0.0 4.0Q0.0 0.0 4.0 0.0L172.0 0.0Q176.0 0.0 176.0 4.0L176.0 186.0Q176.0 190.0 172.0 190.0L4.0 190.0Q0.0 190.0 0.0 186.0Z" stroke="#323232" stroke-width="2.0" stroke-dasharray="none" opacity="1.0" fill="#ffffff"/></g><g id="ProcessOnG1007" transform="matrix(1.0,0.0,0.0,1.0,653.0,340.0)" opacity="1.0"><path id="ProcessOnPath1008" d="M0.0 4.0Q0.0 0.0 4.0 0.0L289.0 0.0Q293.0 0.0 293.0 4.0L293.0 174.0Q293.0 178.0 289.0 178.0L4.0 178.0Q0.0 178.0 0.0 174.0Z" stroke="#323232" stroke-width="2.0" stroke-dasharray="none" opacity="1.0" fill="#ffffff"/></g><g id="ProcessOnG1009" transform="matrix(1.0,0.0,0.0,1.0,88.0,447.0)" opacity="1.0"><path id="ProcessOnPath1010" d="M0.0 4.0Q0.0 0.0 4.0 0.0L454.0 0.0Q458.0 0.0 458.0 4.0L458.0 382.0Q458.0 386.0 454.0 386.0L4.0 386.0Q0.0 386.0 0.0 382.0Z" stroke="#323232" stroke-width="2.0" stroke-dasharray="none" opacity="1.0" fill="#ffffff"/></g><g id="ProcessOnG1011" transform="matrix(1.0,0.0,0.0,1.0,229.0,185.0)" opacity="1.0"><path id="ProcessOnPath1012" d="M0.0 0.0L176.0 0.0L176.0 49.0L0.0 49.0Z" stroke="#323232" stroke-width="2.0" stroke-dasharray="none" opacity="1.0" fill="#ffffff"/><g id="ProcessOnG1013" transform="matrix(1.0,0.0,0.0,1.0,10.0,16.375)"><text id="ProcessOnText1014" fill="#000000" font-size="13" x="77.0" y="13.325" font-family="微软雅黑" font-weight="normal" font-style="normal" text-decoration="none" family="微软雅黑" text-anchor="middle" size="13">http api</text></g></g><g id="ProcessOnG1015"><path id="ProcessOnPath1016" d="M317.0 234.0L317.0 266.0L317.0 266.0L317.0 282.7639320225002" stroke="#323232" stroke-width="2.0" stroke-dasharray="none" fill="none" marker-end="url(#ProcessOnMarker1017)"/></g><g id="ProcessOnG1019" transform="matrix(1.0,0.0,0.0,1.0,234.0,299.0)" opacity="1.0"><path id="ProcessOnPath1020" d="M0.0 0.0L171.0 0.0L171.0 47.0L0.0 47.0Z" stroke="#323232" stroke-width="2.0" stroke-dasharray="none" opacity="1.0" fill="#ffffff"/><g id="ProcessOnG1021" transform="matrix(1.0,0.0,0.0,1.0,10.0,15.375)"><text id="ProcessOnText1022" fill="#000000" font-size="13" x="74.5" y="13.325" font-family="微软雅黑" font-weight="normal" font-style="normal" text-decoration="none" family="微软雅黑" text-anchor="middle" size="13">scheduler</text></g></g><g id="ProcessOnG1023" transform="matrix(1.0,0.0,0.0,1.0,273.0,243.0)" opacity="1.0"><path id="ProcessOnPath1024" d="M0.0 0.0L160.0 0.0L160.0 40.0L0.0 40.0Z" stroke="none" stroke-width="0.0" stroke-dasharray="none" opacity="1.0" fill="none"/><g id="ProcessOnG1025" transform="matrix(1.0,0.0,0.0,1.0,0.0,11.875)"><text id="ProcessOnText1026" fill="#000000" font-size="13" x="79.0" y="13.325" font-family="微软雅黑" font-weight="normal" font-style="normal" text-decoration="none" family="微软雅黑" text-anchor="middle" size="13">command</text></g></g><g id="ProcessOnG1027"><path id="ProcessOnPath1028" d="M319.5 346.0L319.5 380.5L319.5 380.5L319.5 399.7639320225002" stroke="#323232" stroke-width="2.0" stroke-dasharray="none" fill="none" marker-end="url(#ProcessOnMarker1029)"/></g><g id="ProcessOnG1031" transform="matrix(6.123233995736766E-17,1.0,-1.0,6.123233995736766E-17,459.0000000000001,325.0)" opacity="1.0"><path id="ProcessOnPath1032" d="M115.0 0.0Q106.0 0.0 106.0 9.0L106.0 130.5Q106.0 139.5 93.0 139.5Q106.0 139.5 106.0 148.5L106.0 270.0Q106.0 279.0 115.0 279.0" stroke="#323232" stroke-width="2.0" stroke-dasharray="none" opacity="1.0" fill="none"/><path id="ProcessOnPath1033" d="M0.0 0.0L115.0 0.0L115.0 279.0L0.0 279.0Z" stroke="none" stroke-width="0.0" stroke-dasharray="none" opacity="1.0" fill="none"/></g><g id="ProcessOnG1034" transform="matrix(1.0,0.0,0.0,1.0,170.0,674.0)" opacity="1.0"><g id="ProcessOnG1036" transform="matrix(1.0,0.0,0.0,1.0,0.0,0.0)"> <g> <path fill="#31333D" d="M40,69.126C40,72.961,36.805,76,32.876,76H7.119C3.202,76,0,72.879,0,69.126V6.885C0,3.121,3.202,0,7.119,0 h25.757C36.805,0,40,3.121,40,6.885V69.126z"/> <rect x="2.56" y="10.719" fill="#FFFFFF" width="34.877" height="56.163"/> <g> <path fill="#DDDDDD" d="M15.042,5.201c0.489,0,0.877,0.391,0.877,0.877c0,0.486-0.389,0.88-0.877,0.88 c-0.487,0-0.884-0.394-0.884-0.88C14.158,5.592,14.555,5.201,15.042,5.201z"/> <path fill="#164C6D" d="M15.042,5.843c0.129,0,0.235,0.107,0.235,0.235c0,0.138-0.106,0.244-0.235,0.244 c-0.138,0-0.244-0.106-0.244-0.244C14.798,5.95,14.904,5.843,15.042,5.843z"/> <path fill="#DDDDDD" d="M25.833,6.323c0,0.154-0.082,0.235-0.229,0.235h-8c-0.163,0-0.244-0.082-0.244-0.235V6.079 c0-0.159,0.081-0.235,0.244-0.235h8.081c0.15,0,0.232,0.077,0.232,0.235v0.244H25.833z"/> </g> <path fill="#DDDDDD" d="M19.999,68.167c1.765,0,3.202,1.419,3.202,3.196c0,1.77-1.438,3.188-3.202,3.188 c-1.764,0-3.202-1.418-3.202-3.188C16.797,69.586,18.235,68.167,19.999,68.167z"/> </g>  </g></g><g id="ProcessOnG1037" transform="matrix(1.0,0.0,0.0,1.0,241.0,674.0)" opacity="1.0"><g id="ProcessOnG1039" transform="matrix(1.0,0.0,0.0,1.0,0.0,0.0)"> <g> <path fill="#31333D" d="M40,69.126C40,72.961,36.805,76,32.876,76H7.119C3.202,76,0,72.879,0,69.126V6.885C0,3.121,3.202,0,7.119,0 h25.757C36.805,0,40,3.121,40,6.885V69.126z"/> <rect x="2.56" y="10.719" fill="#FFFFFF" width="34.877" height="56.163"/> <g> <path fill="#DDDDDD" d="M15.042,5.201c0.489,0,0.877,0.391,0.877,0.877c0,0.486-0.389,0.88-0.877,0.88 c-0.487,0-0.884-0.394-0.884-0.88C14.158,5.592,14.555,5.201,15.042,5.201z"/> <path fill="#164C6D" d="M15.042,5.843c0.129,0,0.235,0.107,0.235,0.235c0,0.138-0.106,0.244-0.235,0.244 c-0.138,0-0.244-0.106-0.244-0.244C14.798,5.95,14.904,5.843,15.042,5.843z"/> <path fill="#DDDDDD" d="M25.833,6.323c0,0.154-0.082,0.235-0.229,0.235h-8c-0.163,0-0.244-0.082-0.244-0.235V6.079 c0-0.159,0.081-0.235,0.244-0.235h8.081c0.15,0,0.232,0.077,0.232,0.235v0.244H25.833z"/> </g> <path fill="#DDDDDD" d="M19.999,68.167c1.765,0,3.202,1.419,3.202,3.196c0,1.77-1.438,3.188-3.202,3.188 c-1.764,0-3.202-1.418-3.202-3.188C16.797,69.586,18.235,68.167,19.999,68.167z"/> </g>  </g></g><g id="ProcessOnG1040" transform="matrix(1.0,0.0,0.0,1.0,317.0,674.0)" opacity="1.0"><g id="ProcessOnG1042" transform="matrix(1.0,0.0,0.0,1.0,0.0,0.0)"> <g> <path fill="#31333D" d="M40,69.126C40,72.961,36.805,76,32.876,76H7.119C3.202,76,0,72.879,0,69.126V6.885C0,3.121,3.202,0,7.119,0 h25.757C36.805,0,40,3.121,40,6.885V69.126z"/> <rect x="2.56" y="10.719" fill="#FFFFFF" width="34.877" height="56.163"/> <g> <path fill="#DDDDDD" d="M15.042,5.201c0.489,0,0.877,0.391,0.877,0.877c0,0.486-0.389,0.88-0.877,0.88 c-0.487,0-0.884-0.394-0.884-0.88C14.158,5.592,14.555,5.201,15.042,5.201z"/> <path fill="#164C6D" d="M15.042,5.843c0.129,0,0.235,0.107,0.235,0.235c0,0.138-0.106,0.244-0.235,0.244 c-0.138,0-0.244-0.106-0.244-0.244C14.798,5.95,14.904,5.843,15.042,5.843z"/> <path fill="#DDDDDD" d="M25.833,6.323c0,0.154-0.082,0.235-0.229,0.235h-8c-0.163,0-0.244-0.082-0.244-0.235V6.079 c0-0.159,0.081-0.235,0.244-0.235h8.081c0.15,0,0.232,0.077,0.232,0.235v0.244H25.833z"/> </g> <path fill="#DDDDDD" d="M19.999,68.167c1.765,0,3.202,1.419,3.202,3.196c0,1.77-1.438,3.188-3.202,3.188 c-1.764,0-3.202-1.418-3.202-3.188C16.797,69.586,18.235,68.167,19.999,68.167z"/> </g>  </g></g><g id="ProcessOnG1043" transform="matrix(1.0,0.0,0.0,1.0,381.0,674.0)" opacity="1.0"><g id="ProcessOnG1045" transform="matrix(1.0,0.0,0.0,1.0,0.0,0.0)"> <g> <path fill="#31333D" d="M40,69.126C40,72.961,36.805,76,32.876,76H7.119C3.202,76,0,72.879,0,69.126V6.885C0,3.121,3.202,0,7.119,0 h25.757C36.805,0,40,3.121,40,6.885V69.126z"/> <rect x="2.56" y="10.719" fill="#FFFFFF" width="34.877" height="56.163"/> <g> <path fill="#DDDDDD" d="M15.042,5.201c0.489,0,0.877,0.391,0.877,0.877c0,0.486-0.389,0.88-0.877,0.88 c-0.487,0-0.884-0.394-0.884-0.88C14.158,5.592,14.555,5.201,15.042,5.201z"/> <path fill="#164C6D" d="M15.042,5.843c0.129,0,0.235,0.107,0.235,0.235c0,0.138-0.106,0.244-0.235,0.244 c-0.138,0-0.244-0.106-0.244-0.244C14.798,5.95,14.904,5.843,15.042,5.843z"/> <path fill="#DDDDDD" d="M25.833,6.323c0,0.154-0.082,0.235-0.229,0.235h-8c-0.163,0-0.244-0.082-0.244-0.235V6.079 c0-0.159,0.081-0.235,0.244-0.235h8.081c0.15,0,0.232,0.077,0.232,0.235v0.244H25.833z"/> </g> <path fill="#DDDDDD" d="M19.999,68.167c1.765,0,3.202,1.419,3.202,3.196c0,1.77-1.438,3.188-3.202,3.188 c-1.764,0-3.202-1.418-3.202-3.188C16.797,69.586,18.235,68.167,19.999,68.167z"/> </g>  </g></g><g id="ProcessOnG1046" transform="matrix(1.0,0.0,0.0,1.0,445.0,674.0)" opacity="1.0"><g id="ProcessOnG1048" transform="matrix(1.0,0.0,0.0,1.0,0.0,0.0)"> <g> <path fill="#31333D" d="M40,69.126C40,72.961,36.805,76,32.876,76H7.119C3.202,76,0,72.879,0,69.126V6.885C0,3.121,3.202,0,7.119,0 h25.757C36.805,0,40,3.121,40,6.885V69.126z"/> <rect x="2.56" y="10.719" fill="#FFFFFF" width="34.877" height="56.163"/> <g> <path fill="#DDDDDD" d="M15.042,5.201c0.489,0,0.877,0.391,0.877,0.877c0,0.486-0.389,0.88-0.877,0.88 c-0.487,0-0.884-0.394-0.884-0.88C14.158,5.592,14.555,5.201,15.042,5.201z"/> <path fill="#164C6D" d="M15.042,5.843c0.129,0,0.235,0.107,0.235,0.235c0,0.138-0.106,0.244-0.235,0.244 c-0.138,0-0.244-0.106-0.244-0.244C14.798,5.95,14.904,5.843,15.042,5.843z"/> <path fill="#DDDDDD" d="M25.833,6.323c0,0.154-0.082,0.235-0.229,0.235h-8c-0.163,0-0.244-0.082-0.244-0.235V6.079 c0-0.159,0.081-0.235,0.244-0.235h8.081c0.15,0,0.232,0.077,0.232,0.235v0.244H25.833z"/> </g> <path fill="#DDDDDD" d="M19.999,68.167c1.765,0,3.202,1.419,3.202,3.196c0,1.77-1.438,3.188-3.202,3.188 c-1.764,0-3.202-1.418-3.202-3.188C16.797,69.586,18.235,68.167,19.999,68.167z"/> </g>  </g></g><g id="ProcessOnG1049" transform="matrix(1.0,0.0,0.0,1.0,167.0,456.0)" opacity="1.0"><path id="ProcessOnPath1050" d="M0.0 0.0L46.0 0.0L46.0 110.0L0.0 110.0Z" stroke="#323232" stroke-width="2.0" stroke-dasharray="none" opacity="1.0" fill="#ffffff"/><g id="ProcessOnG1051" transform="matrix(1.0,0.0,0.0,1.0,10.0,22.5)"><text id="ProcessOnText1052" fill="#000000" font-size="13" x="12.0" y="13.325" font-family="微软雅黑" font-weight="normal" font-style="normal" text-decoration="none" family="微软雅黑" text-anchor="middle" size="13">app</text><text id="ProcessOnText1053" fill="#000000" font-size="13" x="12.0" y="29.575" font-family="微软雅黑" font-weight="normal" font-style="normal" text-decoration="none" family="微软雅黑" text-anchor="middle" size="13">ium</text><text id="ProcessOnText1054" fill="#000000" font-size="13" x="12.0" y="45.825" font-family="微软雅黑" font-weight="normal" font-style="normal" text-decoration="none" family="微软雅黑" text-anchor="middle" size="13">实</text><text id="ProcessOnText1055" fill="#000000" font-size="13" x="12.0" y="62.075" font-family="微软雅黑" font-weight="normal" font-style="normal" text-decoration="none" family="微软雅黑" text-anchor="middle" size="13">例</text></g></g><g id="ProcessOnG1056" transform="matrix(1.0,0.0,0.0,1.0,238.0,456.0)" opacity="1.0"><path id="ProcessOnPath1057" d="M0.0 0.0L46.0 0.0L46.0 110.0L0.0 110.0Z" stroke="#323232" stroke-width="2.0" stroke-dasharray="none" opacity="1.0" fill="#ffffff"/><g id="ProcessOnG1058" transform="matrix(1.0,0.0,0.0,1.0,10.0,22.5)"><text id="ProcessOnText1059" fill="#000000" font-size="13" x="12.0" y="13.325" font-family="微软雅黑" font-weight="normal" font-style="normal" text-decoration="none" family="微软雅黑" text-anchor="middle" size="13">app</text><text id="ProcessOnText1060" fill="#000000" font-size="13" x="12.0" y="29.575" font-family="微软雅黑" font-weight="normal" font-style="normal" text-decoration="none" family="微软雅黑" text-anchor="middle" size="13">ium</text><text id="ProcessOnText1061" fill="#000000" font-size="13" x="12.0" y="45.825" font-family="微软雅黑" font-weight="normal" font-style="normal" text-decoration="none" family="微软雅黑" text-anchor="middle" size="13">实</text><text id="ProcessOnText1062" fill="#000000" font-size="13" x="12.0" y="62.075" font-family="微软雅黑" font-weight="normal" font-style="normal" text-decoration="none" family="微软雅黑" text-anchor="middle" size="13">例</text></g></g><g id="ProcessOnG1063" transform="matrix(1.0,0.0,0.0,1.0,314.0,456.0)" opacity="1.0"><path id="ProcessOnPath1064" d="M0.0 0.0L46.0 0.0L46.0 110.0L0.0 110.0Z" stroke="#323232" stroke-width="2.0" stroke-dasharray="none" opacity="1.0" fill="#ffffff"/><g id="ProcessOnG1065" transform="matrix(1.0,0.0,0.0,1.0,10.0,22.5)"><text id="ProcessOnText1066" fill="#000000" font-size="13" x="12.0" y="13.325" font-family="微软雅黑" font-weight="normal" font-style="normal" text-decoration="none" family="微软雅黑" text-anchor="middle" size="13">app</text><text id="ProcessOnText1067" fill="#000000" font-size="13" x="12.0" y="29.575" font-family="微软雅黑" font-weight="normal" font-style="normal" text-decoration="none" family="微软雅黑" text-anchor="middle" size="13">ium</text><text id="ProcessOnText1068" fill="#000000" font-size="13" x="12.0" y="45.825" font-family="微软雅黑" font-weight="normal" font-style="normal" text-decoration="none" family="微软雅黑" text-anchor="middle" size="13">实</text><text id="ProcessOnText1069" fill="#000000" font-size="13" x="12.0" y="62.075" font-family="微软雅黑" font-weight="normal" font-style="normal" text-decoration="none" family="微软雅黑" text-anchor="middle" size="13">例</text></g></g><g id="ProcessOnG1070" transform="matrix(1.0,0.0,0.0,1.0,378.0,456.0)" opacity="1.0"><path id="ProcessOnPath1071" d="M0.0 0.0L46.0 0.0L46.0 110.0L0.0 110.0Z" stroke="#323232" stroke-width="2.0" stroke-dasharray="none" opacity="1.0" fill="#ffffff"/><g id="ProcessOnG1072" transform="matrix(1.0,0.0,0.0,1.0,10.0,22.5)"><text id="ProcessOnText1073" fill="#000000" font-size="13" x="12.0" y="13.325" font-family="微软雅黑" font-weight="normal" font-style="normal" text-decoration="none" family="微软雅黑" text-anchor="middle" size="13">app</text><text id="ProcessOnText1074" fill="#000000" font-size="13" x="12.0" y="29.575" font-family="微软雅黑" font-weight="normal" font-style="normal" text-decoration="none" family="微软雅黑" text-anchor="middle" size="13">ium</text><text id="ProcessOnText1075" fill="#000000" font-size="13" x="12.0" y="45.825" font-family="微软雅黑" font-weight="normal" font-style="normal" text-decoration="none" family="微软雅黑" text-anchor="middle" size="13">实</text><text id="ProcessOnText1076" fill="#000000" font-size="13" x="12.0" y="62.075" font-family="微软雅黑" font-weight="normal" font-style="normal" text-decoration="none" family="微软雅黑" text-anchor="middle" size="13">例</text></g></g><g id="ProcessOnG1077" transform="matrix(1.0,0.0,0.0,1.0,439.0,456.0)" opacity="1.0"><path id="ProcessOnPath1078" d="M0.0 0.0L46.0 0.0L46.0 110.0L0.0 110.0Z" stroke="#323232" stroke-width="2.0" stroke-dasharray="none" opacity="1.0" fill="#ffffff"/><g id="ProcessOnG1079" transform="matrix(1.0,0.0,0.0,1.0,10.0,22.5)"><text id="ProcessOnText1080" fill="#000000" font-size="13" x="12.0" y="13.325" font-family="微软雅黑" font-weight="normal" font-style="normal" text-decoration="none" family="微软雅黑" text-anchor="middle" size="13">app</text><text id="ProcessOnText1081" fill="#000000" font-size="13" x="12.0" y="29.575" font-family="微软雅黑" font-weight="normal" font-style="normal" text-decoration="none" family="微软雅黑" text-anchor="middle" size="13">ium</text><text id="ProcessOnText1082" fill="#000000" font-size="13" x="12.0" y="45.825" font-family="微软雅黑" font-weight="normal" font-style="normal" text-decoration="none" family="微软雅黑" text-anchor="middle" size="13">实</text><text id="ProcessOnText1083" fill="#000000" font-size="13" x="12.0" y="62.075" font-family="微软雅黑" font-weight="normal" font-style="normal" text-decoration="none" family="微软雅黑" text-anchor="middle" size="13">例</text></g></g><g id="ProcessOnG1084"><path id="ProcessOnPath1085" d="M191.0 565.0L191.0 619.5L190.0 619.5L190.0 658.7639320225002" stroke="#323232" stroke-width="2.0" stroke-dasharray="none" fill="none" marker-end="url(#ProcessOnMarker1086)"/></g><g id="ProcessOnG1088"><path id="ProcessOnPath1089" d="M261.0 566.0L261.0 620.0L261.0 620.0L261.0 658.7639320225002" stroke="#323232" stroke-width="2.0" stroke-dasharray="none" fill="none" marker-end="url(#ProcessOnMarker1090)"/></g><g id="ProcessOnG1092"><path id="ProcessOnPath1093" d="M337.0 566.0L337.0 620.0L337.0 620.0L337.0 658.7639320225002" stroke="#323232" stroke-width="2.0" stroke-dasharray="none" fill="none" marker-end="url(#ProcessOnMarker1094)"/></g><g id="ProcessOnG1096"><path id="ProcessOnPath1097" d="M401.0 566.0L401.0 620.0L401.0 620.0L401.0 658.7639320225002" stroke="#323232" stroke-width="2.0" stroke-dasharray="none" fill="none" marker-end="url(#ProcessOnMarker1098)"/></g><g id="ProcessOnG1100"><path id="ProcessOnPath1101" d="M462.0 566.0L462.0 620.0L465.0 620.0L465.0 658.7639320225002" stroke="#323232" stroke-width="2.0" stroke-dasharray="none" fill="none" marker-end="url(#ProcessOnMarker1102)"/></g><g id="ProcessOnG1104" transform="matrix(1.0,0.0,0.0,1.0,234.0,766.0)" opacity="1.0"><path id="ProcessOnPath1105" d="M0.0 0.0L160.0 0.0L160.0 40.0L0.0 40.0Z" stroke="none" stroke-width="0.0" stroke-dasharray="none" opacity="1.0" fill="none"/><g id="ProcessOnG1106" transform="matrix(1.0,0.0,0.0,1.0,0.0,3.75)"><text id="ProcessOnText1107" fill="#000000" font-size="13" x="79.0" y="13.325" font-family="微软雅黑" font-weight="normal" font-style="normal" text-decoration="none" family="微软雅黑" text-anchor="middle" size="13">这部分程序不可控，只能同</text><text id="ProcessOnText1108" fill="#000000" font-size="13" x="79.0" y="29.575" font-family="微软雅黑" font-weight="normal" font-style="normal" text-decoration="none" family="微软雅黑" text-anchor="middle" size="13">shell之类的方式控制</text></g></g><g id="ProcessOnG1109" transform="matrix(1.0,0.0,0.0,1.0,439.0,292.5)" opacity="1.0"><path id="ProcessOnPath1110" d="M0.0 19.8L176.0 19.8L176.0 0.0L206.0 30.0L176.0 60.0L176.0 40.2L0.0 40.2L0.0 19.8Z" stroke="#323232" stroke-width="2.0" stroke-dasharray="none" opacity="1.0" fill="#ffffff"/></g><g id="ProcessOnG1111" transform="matrix(1.0,0.0,0.0,1.0,775.0,169.5)" opacity="1.0"><path id="ProcessOnPath1112" d="M18.810000000000002 0.0L38.190000000000005 0.0L38.190000000000005 124.0L57.0 124.0L28.5 152.5L0.0 124.0L18.810000000000002 124.0L18.810000000000002 0.0Z" stroke="#323232" stroke-width="2.0" stroke-dasharray="none" opacity="1.0" fill="#ffffff"/><g id="ProcessOnG1113" transform="matrix(1.0,0.0,0.0,1.0,-11.4,60.5)"><text id="ProcessOnText1114" fill="#000000" font-size="13" x="38.9" y="13.325" font-family="微软雅黑" font-weight="normal" font-style="normal" text-decoration="none" family="微软雅黑" text-anchor="middle" size="13">任务队列</text></g></g><g id="ProcessOnG1115" transform="matrix(1.0,0.0,0.0,1.0,1065.0,169.5)" opacity="1.0"><path id="ProcessOnPath1116" d="M18.810000000000002 0.0L38.190000000000005 0.0L38.190000000000005 124.0L57.0 124.0L28.5 152.5L0.0 124.0L18.810000000000002 124.0L18.810000000000002 0.0Z" stroke="#323232" stroke-width="2.0" stroke-dasharray="none" opacity="1.0" fill="#ffffff"/><g id="ProcessOnG1117" transform="matrix(1.0,0.0,0.0,1.0,-11.4,60.5)"><text id="ProcessOnText1118" fill="#000000" font-size="13" x="38.9" y="13.325" font-family="微软雅黑" font-weight="normal" font-style="normal" text-decoration="none" family="微软雅黑" text-anchor="middle" size="13">控制队列</text></g></g><g id="ProcessOnG1119" transform="matrix(1.0,0.0,0.0,1.0,678.0,352.5)" opacity="1.0"><g id="ProcessOnG1121" transform="matrix(1.0,0.0,0.0,1.0,0.0,0.0)"> <g> <path fill="#31333D" d="M40,69.126C40,72.961,36.805,76,32.876,76H7.119C3.202,76,0,72.879,0,69.126V6.885C0,3.121,3.202,0,7.119,0 h25.757C36.805,0,40,3.121,40,6.885V69.126z"/> <rect x="2.56" y="10.719" fill="#FFFFFF" width="34.877" height="56.163"/> <g> <path fill="#DDDDDD" d="M15.042,5.201c0.489,0,0.877,0.391,0.877,0.877c0,0.486-0.389,0.88-0.877,0.88 c-0.487,0-0.884-0.394-0.884-0.88C14.158,5.592,14.555,5.201,15.042,5.201z"/> <path fill="#164C6D" d="M15.042,5.843c0.129,0,0.235,0.107,0.235,0.235c0,0.138-0.106,0.244-0.235,0.244 c-0.138,0-0.244-0.106-0.244-0.244C14.798,5.95,14.904,5.843,15.042,5.843z"/> <path fill="#DDDDDD" d="M25.833,6.323c0,0.154-0.082,0.235-0.229,0.235h-8c-0.163,0-0.244-0.082-0.244-0.235V6.079 c0-0.159,0.081-0.235,0.244-0.235h8.081c0.15,0,0.232,0.077,0.232,0.235v0.244H25.833z"/> </g> <path fill="#DDDDDD" d="M19.999,68.167c1.765,0,3.202,1.419,3.202,3.196c0,1.77-1.438,3.188-3.202,3.188 c-1.764,0-3.202-1.418-3.202-3.188C16.797,69.586,18.235,68.167,19.999,68.167z"/> </g>  </g></g><g id="ProcessOnG1122"><path id="ProcessOnPath1123" d="M727.0 389.0L803.0 389.0L803.0 389.0L879.0 389.0" stroke="#323232" stroke-width="2.0" stroke-dasharray="2.0 3.0" fill="none"/></g><g id="ProcessOnG1124" transform="matrix(1.0,0.0,0.0,1.0,889.0,352.5)" opacity="1.0"><g id="ProcessOnG1126" transform="matrix(1.0,0.0,0.0,1.0,0.0,0.0)"> <g> <path fill="#31333D" d="M40,69.126C40,72.961,36.805,76,32.876,76H7.119C3.202,76,0,72.879,0,69.126V6.885C0,3.121,3.202,0,7.119,0 h25.757C36.805,0,40,3.121,40,6.885V69.126z"/> <rect x="2.56" y="10.719" fill="#FFFFFF" width="34.877" height="56.163"/> <g> <path fill="#DDDDDD" d="M15.042,5.201c0.489,0,0.877,0.391,0.877,0.877c0,0.486-0.389,0.88-0.877,0.88 c-0.487,0-0.884-0.394-0.884-0.88C14.158,5.592,14.555,5.201,15.042,5.201z"/> <path fill="#164C6D" d="M15.042,5.843c0.129,0,0.235,0.107,0.235,0.235c0,0.138-0.106,0.244-0.235,0.244 c-0.138,0-0.244-0.106-0.244-0.244C14.798,5.95,14.904,5.843,15.042,5.843z"/> <path fill="#DDDDDD" d="M25.833,6.323c0,0.154-0.082,0.235-0.229,0.235h-8c-0.163,0-0.244-0.082-0.244-0.235V6.079 c0-0.159,0.081-0.235,0.244-0.235h8.081c0.15,0,0.232,0.077,0.232,0.235v0.244H25.833z"/> </g> <path fill="#DDDDDD" d="M19.999,68.167c1.765,0,3.202,1.419,3.202,3.196c0,1.77-1.438,3.188-3.202,3.188 c-1.764,0-3.202-1.418-3.202-3.188C16.797,69.586,18.235,68.167,19.999,68.167z"/> </g>  </g></g><g id="ProcessOnG1127"><path id="ProcessOnPath1128" d="M698.0 453.2360679774998L698.0 463.5L698.0 463.5L698.0 489.0" stroke="#323232" stroke-width="2.0" stroke-dasharray="none" fill="none" marker-start="url(#ProcessOnMarker1129)"/><g id="ProcessOnG1131" transform="matrix(1.0,0.0,0.0,1.0,698.0,462.99303398874986)"><path id="ProcessOnPath1132" d="M0 0H26.0V16.25H0Z" fill="#fff" transform="matrix(1.0,0.0,0.0,1.0,-13.0,0.0)"/><text id="ProcessOnText1133" fill="#000000" font-size="13" x="0.0" y="13.325" font-family="微软雅黑" font-weight="normal" font-style="normal" text-decoration="none" family="微软雅黑" text-anchor="middle" size="13">轮询</text></g></g><g id="ProcessOnG1134"><path id="ProcessOnPath1135" d="M801.0 519.0L801.0 568.0L801.0 568.0L801.0 601.7639320225002" stroke="#323232" stroke-width="2.0" stroke-dasharray="none" fill="none" marker-end="url(#ProcessOnMarker1136)"/><g id="ProcessOnG1138" transform="matrix(1.0,0.0,0.0,1.0,801.0,552.2569660112501)"><path id="ProcessOnPath1139" d="M0 0H78.0V16.25H0Z" fill="#fff" transform="matrix(1.0,0.0,0.0,1.0,-39.0,0.0)"/><text id="ProcessOnText1140" fill="#000000" font-size="13" x="0.0" y="13.325" font-family="微软雅黑" font-weight="normal" font-style="normal" text-decoration="none" family="微软雅黑" text-anchor="middle" size="13">获取可用设备</text></g></g><g id="ProcessOnG1141" transform="matrix(1.0,0.0,0.0,1.0,779.5,623.0)" opacity="1.0"><g id="ProcessOnG1143" transform="matrix(1.0,0.0,0.0,1.0,0.0,0.0)"> <g> <path fill="#31333D" d="M40,69.126C40,72.961,36.805,76,32.876,76H7.119C3.202,76,0,72.879,0,69.126V6.885C0,3.121,3.202,0,7.119,0 h25.757C36.805,0,40,3.121,40,6.885V69.126z"/> <rect x="2.56" y="10.719" fill="#FFFFFF" width="34.877" height="56.163"/> <g> <path fill="#DDDDDD" d="M15.042,5.201c0.489,0,0.877,0.391,0.877,0.877c0,0.486-0.389,0.88-0.877,0.88 c-0.487,0-0.884-0.394-0.884-0.88C14.158,5.592,14.555,5.201,15.042,5.201z"/> <path fill="#164C6D" d="M15.042,5.843c0.129,0,0.235,0.107,0.235,0.235c0,0.138-0.106,0.244-0.235,0.244 c-0.138,0-0.244-0.106-0.244-0.244C14.798,5.95,14.904,5.843,15.042,5.843z"/> <path fill="#DDDDDD" d="M25.833,6.323c0,0.154-0.082,0.235-0.229,0.235h-8c-0.163,0-0.244-0.082-0.244-0.235V6.079 c0-0.159,0.081-0.235,0.244-0.235h8.081c0.15,0,0.232,0.077,0.232,0.235v0.244H25.833z"/> </g> <path fill="#DDDDDD" d="M19.999,68.167c1.765,0,3.202,1.419,3.202,3.196c0,1.77-1.438,3.188-3.202,3.188 c-1.764,0-3.202-1.418-3.202-3.188C16.797,69.586,18.235,68.167,19.999,68.167z"/> </g>  </g></g><g id="ProcessOnG1144" transform="matrix(1.0,0.0,0.0,1.0,573.5,800.0)" opacity="1.0"><g id="ProcessOnG1146" transform="matrix(1.0,0.0,0.0,1.0,0.0,0.0)"> <g> <path fill="#31333D" d="M40,69.126C40,72.961,36.805,76,32.876,76H7.119C3.202,76,0,72.879,0,69.126V6.885C0,3.121,3.202,0,7.119,0 h25.757C36.805,0,40,3.121,40,6.885V69.126z"/> <rect x="2.56" y="10.719" fill="#FFFFFF" width="34.877" height="56.163"/> <g> <path fill="#DDDDDD" d="M15.042,5.201c0.489,0,0.877,0.391,0.877,0.877c0,0.486-0.389,0.88-0.877,0.88 c-0.487,0-0.884-0.394-0.884-0.88C14.158,5.592,14.555,5.201,15.042,5.201z"/> <path fill="#164C6D" d="M15.042,5.843c0.129,0,0.235,0.107,0.235,0.235c0,0.138-0.106,0.244-0.235,0.244 c-0.138,0-0.244-0.106-0.244-0.244C14.798,5.95,14.904,5.843,15.042,5.843z"/> <path fill="#DDDDDD" d="M25.833,6.323c0,0.154-0.082,0.235-0.229,0.235h-8c-0.163,0-0.244-0.082-0.244-0.235V6.079 c0-0.159,0.081-0.235,0.244-0.235h8.081c0.15,0,0.232,0.077,0.232,0.235v0.244H25.833z"/> </g> <path fill="#DDDDDD" d="M19.999,68.167c1.765,0,3.202,1.419,3.202,3.196c0,1.77-1.438,3.188-3.202,3.188 c-1.764,0-3.202-1.418-3.202-3.188C16.797,69.586,18.235,68.167,19.999,68.167z"/> </g>  </g></g><g id="ProcessOnG1147" transform="matrix(1.0,0.0,0.0,1.0,634.5,800.0)" opacity="1.0"><path id="ProcessOnPath1148" d="M0.0 0.0L600.0 0.0L600.0 209.0L0.0 209.0Z" stroke="none" stroke-width="0.0" stroke-dasharray="none" opacity="1.0"/></g><g id="ProcessOnG1151"><path id="ProcessOnPath1152" d="M800.0 699.0L800.0 722.5L800.0 722.5L800.0 730.7639320225002" stroke="#323232" stroke-width="2.0" stroke-dasharray="none" fill="none" marker-end="url(#ProcessOnMarker1153)"/></g><g id="ProcessOnG1155" transform="matrix(1.0,0.0,0.0,1.0,741.5,754.0)" opacity="1.0"><path id="ProcessOnPath1156" d="M0.0 0.0L116.0 0.0L116.0 30.0L0.0 30.0Z" stroke="#323232" stroke-width="2.0" stroke-dasharray="none" opacity="1.0" fill="#ffffff"/><g id="ProcessOnG1157" transform="matrix(1.0,0.0,0.0,1.0,10.0,6.875)"><text id="ProcessOnText1158" fill="#000000" font-size="13" x="47.0" y="13.325" font-family="微软雅黑" font-weight="normal" font-style="normal" text-decoration="none" family="微软雅黑" text-anchor="middle" size="13">运行app</text></g></g><g id="ProcessOnG1159" transform="matrix(1.0,0.0,0.0,1.0,1071.0,344.5)" opacity="1.0"><g id="ProcessOnG1161" transform="matrix(1.0,0.0,0.0,1.0,0.0,0.0)"> <g> <path fill="#31333D" d="M40,69.126C40,72.961,36.805,76,32.876,76H7.119C3.202,76,0,72.879,0,69.126V6.885C0,3.121,3.202,0,7.119,0 h25.757C36.805,0,40,3.121,40,6.885V69.126z"/> <rect x="2.56" y="10.719" fill="#FFFFFF" width="34.877" height="56.163"/> <g> <path fill="#DDDDDD" d="M15.042,5.201c0.489,0,0.877,0.391,0.877,0.877c0,0.486-0.389,0.88-0.877,0.88 c-0.487,0-0.884-0.394-0.884-0.88C14.158,5.592,14.555,5.201,15.042,5.201z"/> <path fill="#164C6D" d="M15.042,5.843c0.129,0,0.235,0.107,0.235,0.235c0,0.138-0.106,0.244-0.235,0.244 c-0.138,0-0.244-0.106-0.244-0.244C14.798,5.95,14.904,5.843,15.042,5.843z"/> <path fill="#DDDDDD" d="M25.833,6.323c0,0.154-0.082,0.235-0.229,0.235h-8c-0.163,0-0.244-0.082-0.244-0.235V6.079 c0-0.159,0.081-0.235,0.244-0.235h8.081c0.15,0,0.232,0.077,0.232,0.235v0.244H25.833z"/> </g> <path fill="#DDDDDD" d="M19.999,68.167c1.765,0,3.202,1.419,3.202,3.196c0,1.77-1.438,3.188-3.202,3.188 c-1.764,0-3.202-1.418-3.202-3.188C16.797,69.586,18.235,68.167,19.999,68.167z"/> </g>  </g></g><g id="ProcessOnG1162" transform="matrix(1.0,0.0,0.0,1.0,1013.5,447.0)" opacity="1.0"><path id="ProcessOnPath1163" d="M0.0 0.0L160.0 0.0L160.0 40.0L0.0 40.0Z" stroke="none" stroke-width="0.0" stroke-dasharray="none" opacity="1.0" fill="none"/><g id="ProcessOnG1164" transform="matrix(1.0,0.0,0.0,1.0,0.0,-4.375)"><text id="ProcessOnText1165" fill="#000000" font-size="13" x="79.0" y="13.325" font-family="微软雅黑" font-weight="normal" font-style="normal" text-decoration="none" family="微软雅黑" text-anchor="middle" size="13">device：{</text><text id="ProcessOnText1166" fill="#000000" font-size="13" x="79.0" y="29.575" font-family="微软雅黑" font-weight="normal" font-style="normal" text-decoration="none" family="微软雅黑" text-anchor="middle" size="13">                    ip,p,sip:sp</text><text id="ProcessOnText1167" fill="#000000" font-size="13" x="79.0" y="45.825" font-family="微软雅黑" font-weight="normal" font-style="normal" text-decoration="none" family="微软雅黑" text-anchor="middle" size="13">}</text></g></g><g id="ProcessOnG1168"><path id="ProcessOnPath1169" d="M1071.0 382.5L989.0 382.5L989.0 471.0L922.2360679774998 471.0" stroke="#323232" stroke-width="2.0" stroke-dasharray="none" fill="none" marker-end="url(#ProcessOnMarker1170)"/></g><g id="ProcessOnG1172" transform="matrix(1.0,0.0,0.0,1.0,91.0,35.0)" opacity="1.0"><path id="ProcessOnPath1173" d="M0.0 0.0L100.0 0.0L100.0 70.0L0.0 70.0Z" stroke="#323232" stroke-width="2.0" stroke-dasharray="none" opacity="1.0" fill="#ffffff"/><g id="ProcessOnG1174" transform="matrix(1.0,0.0,0.0,1.0,10.0,26.875)"><text id="ProcessOnText1175" fill="#000000" font-size="13" x="39.0" y="13.325" font-family="微软雅黑" font-weight="normal" font-style="normal" text-decoration="none" family="微软雅黑" text-anchor="middle" size="13">浏览器</text></g></g><g id="ProcessOnG1176" transform="matrix(1.0,0.0,0.0,1.0,317.0,35.0)" opacity="1.0"><path id="ProcessOnPath1177" d="M0.0 0.0L100.0 0.0L100.0 70.0L0.0 70.0Z" stroke="#323232" stroke-width="2.0" stroke-dasharray="none" opacity="1.0" fill="#ffffff"/><g id="ProcessOnG1178" transform="matrix(1.0,0.0,0.0,1.0,10.0,26.875)"><text id="ProcessOnText1179" fill="#000000" font-size="13" x="39.0" y="13.325" font-family="微软雅黑" font-weight="normal" font-style="normal" text-decoration="none" family="微软雅黑" text-anchor="middle" size="13">其他应用</text></g></g><g id="ProcessOnG1180"><path id="ProcessOnPath1181" d="M317.0 185.0L317.0 145.0L141.0 145.0L141.0 120.23606797749979" stroke="#323232" stroke-width="2.0" stroke-dasharray="none" fill="none" marker-end="url(#ProcessOnMarker1182)"/></g><g id="ProcessOnG1184"><path id="ProcessOnPath1185" d="M317.0 185.0L317.0 145.0L367.0 145.0L367.0 120.23606797749979" stroke="#323232" stroke-width="2.0" stroke-dasharray="none" fill="none" marker-end="url(#ProcessOnMarker1186)"/></g></g></g></svg>